<svg width="40" height="40" viewBox="0 0 40 40" fill="none" xmlns="http://www.w3.org/2000/svg">
  <rect width="40" height="40" rx="12" fill="url(#logo_gradient)" />
  <path d="M11 13C11 11.8954 11.8954 11 13 11H27C28.1046 11 29 11.8954 29 13V27C29 28.1046 28.1046 29 27 29H13C11.8954 29 11 28.1046 11 27V13Z" fill="white" fillOpacity="0.2" />
  <rect x="14" y="14" width="12" height="12" rx="3" fill="white" />
  <circle cx="20" cy="18" r="2.5" fill="url(#logo_gradient)" />
  <rect x="17" y="22" width="6" height="1.5" rx="0.75" fill="url(#logo_gradient)" />
  <path d="M28 20C30 18 33 21 35 19" stroke="white" strokeWidth="2.5" strokeLinecap="round" strokeLinejoin="round" />
  <path d="M12 20C10 22 7 19 5 21" stroke="white" strokeWidth="2.5" strokeLinecap="round" strokeLinejoin="round" />
  <defs>
    <linearGradient id="logo_gradient" x1="0" y1="0" x2="40" y2="40" gradientUnits="userSpaceOnUse">
      <stop stopColor="#6366F1" />
      <stop offset="1" stopColor="#0EA5E9" />
    </linearGradient>
  </defs>
</svg>